<?xml version="1.0" ?><svg data-name="Layer 1" id="Layer_1" viewBox="0 0 100 100" xmlns="http://www.w3.org/2000/svg"><title/><path d="M95,42.27A38.65,38.65,0,0,0,56.39,5H55V42.27H27.71V37.44A14.7,14.7,0,0,0,13,22.79H10.62a5.64,5.64,0,1,0,5,3.11A11.88,11.88,0,0,1,24.9,37.44v6.24a22.75,22.75,0,0,0,21.75,22.7l-7.28,7.28a12,12,0,1,0,2,2l9.25-9.25H64.42l9.25,9.25a12,12,0,1,0,2-2L68.4,66.41h3.88A22.76,22.76,0,0,0,95,45s0-1,0-1.33S95,42.27,95,42.27ZM57.8,7.84A35.84,35.84,0,0,1,92.16,42.2H57.8ZM10.63,31.23a2.81,2.81,0,0,1,0-5.62h0a2.81,2.81,0,0,1,0,5.62ZM41.11,83a9.17,9.17,0,1,1-3.76-7.37l-4.66,4.66a2.78,2.78,0,0,0-.72-.1A2.81,2.81,0,1,0,34.78,83a2.78,2.78,0,0,0-.1-.72l4.66-4.66A9.08,9.08,0,0,1,41.11,83ZM83,73.91a9.17,9.17,0,1,1-7.37,3.76l4.66,4.66a2.78,2.78,0,0,0-.1.72A2.81,2.81,0,1,0,83,80.23a2.78,2.78,0,0,0-.72.1l-4.66-4.66A9.08,9.08,0,0,1,83,73.91ZM72.27,63.59H47.62a19.94,19.94,0,0,1-19.86-18.5H92.14A19.94,19.94,0,0,1,72.27,63.59Z"/></svg>